<svg xmlns="http://www.w3.org/2000/svg" version="1.1" xmlns:xlink="http://www.w3.org/1999/xlink" xmlns:svgjs="http://svgjs.dev/svgjs" width="2000" height="1500" viewBox="0 0 2000 1500"><rect width="2000" height="1500" fill="#ffffff"></rect><g transform="matrix(0.75,0,0,0.75,249.090909090909,278.98548387096776)"><svg viewBox="0 0 396 248" data-background-color="#f9f6ed" preserveAspectRatio="xMidYMid meet" height="1252" width="2000" xmlns="http://www.w3.org/2000/svg" xmlns:xlink="http://www.w3.org/1999/xlink"><g id="tight-bounds" transform="matrix(1,0,0,1,0.2400000000000091,0.4000000000000057)"><svg viewBox="0 0 395.52 247.2" height="247.2" width="395.52"><g><svg></svg></g><g><svg viewBox="0 0 395.52 247.2" height="247.2" width="395.52"><mask id="bf69cc9f-6aca-4ec0-8910-8a9a656112e2"><rect width="395.52" height="247.2" fill="white"></rect><g transform="matrix(1,0,0,1,0,90.3252959898154)" id="clone"><svg viewBox="0 0 395.52 66.54940802036919" height="66.54940802036919" width="395.52"><g><svg viewBox="0 0 395.52 66.54940802036919" height="66.54940802036919" width="395.52"><g><svg viewBox="0 0 395.52 66.54940802036919" height="66.54940802036919" width="395.52"><g><svg viewBox="0 0 395.52 66.54940802036919" height="66.54940802036919" width="395.52"><g id="SvgjsG5757"><svg viewBox="0 0 395.52 66.54940802036919" height="66.54940802036919" width="395.52" id="SvgjsSvg5756"><g><svg viewBox="0 0 395.52 66.54940802036919" height="66.54940802036919" width="395.52"><g transform="matrix(1,0,0,1,0,0)"><svg width="395.52" viewBox="-1.65 -37 236.63 40.65" height="66.54940802036919" data-palette-color="#21272d"><path d="M8.15 0.65L8.15 0.65Q5.65 0.65 4.28-0.8 2.9-2.25 2.9-5L2.9-5Q2.9-6.95 3.45-9L3.45-9Q3.7-9.85 3.85-10.7 4-11.55 4-12.4L4-12.4Q4-14.6 2.65-15.25L2.65-15.25Q1.35-15.95 1.35-16.75L1.35-16.75Q1.35-17.55 2.02-18.35 2.7-19.15 3.7-19.68 4.7-20.2 5.7-20.2L5.7-20.2Q8.55-20.2 8.55-15.55L8.55-15.55Q8.55-14.05 8.33-12.78 8.1-11.5 7.8-10.35L7.8-10.35Q7.6-9.55 7.48-8.75 7.35-7.95 7.35-7.35L7.35-7.35Q7.35-4.85 9.8-4.85L9.8-4.85Q12.1-4.85 14.1-7.3 16.1-9.75 17.4-14.15L17.4-14.15 17.35-15.1Q17.25-17.6 18.23-18.9 19.2-20.2 21.1-20.2L21.1-20.2Q22.75-20.2 22.75-19.15L22.75-19.15Q22.75-18.8 22.63-18.25 22.5-17.7 22.25-16.95L22.25-16.95Q21.75-15.1 21.4-13.03 21.05-10.95 21.05-9.2L21.05-9.2Q21.05-7.25 21.65-5.98 22.25-4.7 23.9-4.25L23.9-4.25Q24.35-4.2 24.63-3.98 24.9-3.75 24.9-3.05L24.9-3.05Q24.9-1.85 23.9-0.7 22.9 0.45 21 0.45L21 0.45Q17.35 0.45 17.35-4.7L17.35-4.7Q17.35-5.6 17.5-7.4L17.5-7.4 17.4-7.45Q14.25 0.65 8.15 0.65ZM30.75 0.55L30.75 0.55Q29.95 0.55 29.47 0.28 29 0 29.15-0.65L29.15-0.65Q29.7-2.8 30.07-5.03 30.45-7.25 30.45-9.3L30.45-9.3Q30.45-11.95 30.12-13.18 29.8-14.4 29.25-14.88 28.7-15.35 27.9-15.6L27.9-15.6Q27.55-15.75 27.27-16 27-16.25 27-16.7L27-16.7Q27-17.4 27.55-18.25 28.1-19.1 29.1-19.73 30.1-20.35 31.4-20.35L31.4-20.35Q33.1-20.35 33.77-19.18 34.45-18 34.45-16.1L34.45-16.1Q35.35-18.1 36.67-19.28 38-20.45 40-20.45L40-20.45Q41.35-20.45 42.25-19.85 43.15-19.25 43.15-17.9L43.15-17.9Q43.15-16.55 42.27-15.38 41.4-14.2 40.5-14.2L40.5-14.2Q40.35-14.2 40.15-14.25 39.95-14.3 39.8-14.5L39.8-14.5Q39.15-15.3 38.2-15.3L38.2-15.3Q36.75-15.3 35.65-13.4 34.55-11.5 34.45-8.15L34.45-8.15Q34.5-6.9 34.52-5.6 34.55-4.3 34.55-3.7L34.55-3.7Q34.55-1.85 33.52-0.65 32.5 0.55 30.75 0.55ZM54.34 0.65L54.34 0.65Q52.49 0.65 51.17 0 49.84-0.65 48.84-1.65L48.84-1.65Q48.34-0.8 47.67-0.13 46.99 0.55 46.14 0.55L46.14 0.55Q45.59 0.55 45.09 0.23 44.59-0.1 44.7-0.65L44.7-0.65Q45.45-4.65 45.97-8.75 46.49-12.85 46.49-17.1L46.49-17.1Q46.49-20.65 46.24-23.75 45.99-26.85 44.7-29.45L44.7-29.45Q44.45-29.95 44.27-30.4 44.09-30.85 44.09-31.25L44.09-31.25Q44.09-32.2 45.2-33.1 46.3-34 47.55-34L47.55-34Q49.34-34 49.99-31.8 50.64-29.6 50.64-25.3L50.64-25.3Q50.64-21.65 50.32-18.63 49.99-15.6 49.59-13.45L49.59-13.45Q50.99-16.4 53.42-18.43 55.84-20.45 58.89-20.45L58.89-20.45Q61.95-20.45 63.67-18.43 65.39-16.4 65.39-12.95L65.39-12.95Q65.39-10.4 64.59-7.98 63.8-5.55 62.34-3.6 60.89-1.65 58.87-0.5 56.84 0.65 54.34 0.65ZM55.49-4.75L55.49-4.75Q58.34-4.75 59.89-6.55 61.45-8.35 61.45-10.7L61.45-10.7Q61.45-12.75 60.32-13.88 59.2-15 57.34-15L57.34-15Q55.49-15 54.05-13.88 52.59-12.75 51.59-10.93 50.59-9.1 50.05-7L50.05-7Q51.2-5.9 52.62-5.33 54.05-4.75 55.49-4.75ZM75.44 0.65L75.44 0.65Q72.44 0.65 70.62-1.23 68.79-3.1 68.79-6.6L68.79-6.6Q68.79-9.1 69.77-11.58 70.74-14.05 72.59-16.05 74.44-18.05 77.04-19.25 79.64-20.45 82.89-20.45L82.89-20.45Q85.89-20.45 88.02-19.43 90.14-18.4 90.14-16.65L90.14-16.65Q90.14-16.2 90.04-15.48 89.94-14.75 89.79-14.3L89.79-14.3Q89.64-13.9 89.37-13.58 89.09-13.25 88.64-13.25L88.64-13.25Q88.44-13.25 87.89-13.4L87.89-13.4Q87.69-12.35 87.59-11.35 87.49-10.35 87.49-9.35L87.49-9.35Q87.49-7.45 88.07-5.98 88.64-4.5 90.34-4.15L90.34-4.15Q90.79-4.05 91.07-3.85 91.34-3.65 91.34-3L91.34-3Q91.34-2.45 91.07-1.6 90.79-0.75 90.02-0.08 89.24 0.6 87.79 0.6L87.79 0.6Q85.84 0.6 84.79-0.83 83.74-2.25 83.74-4.9L83.74-4.9Q82.39-2.45 80.32-0.9 78.24 0.65 75.44 0.65ZM77.04-4.55L77.04-4.55Q79.04-4.55 80.57-5.8 82.09-7.05 82.94-8.95L82.94-8.95Q83.49-10.15 83.79-11.58 84.09-13 84.19-14.4L84.19-14.4Q83.34-14.8 82.24-15.05 81.14-15.3 79.94-15.3L79.94-15.3Q76.89-15.3 74.92-13.5 72.94-11.7 72.94-9L72.94-9Q72.94-7 74.04-5.78 75.14-4.55 77.04-4.55ZM97.24 0.55L97.24 0.55Q95.44 0.55 95.64-0.65L95.64-0.65Q96.19-2.8 96.57-5.03 96.94-7.25 96.94-9.3L96.94-9.3Q96.94-11.95 96.62-13.18 96.29-14.4 95.74-14.88 95.19-15.35 94.39-15.6L94.39-15.6Q94.04-15.75 93.77-16 93.49-16.25 93.49-16.7L93.49-16.7Q93.49-17.4 94.04-18.25 94.59-19.1 95.62-19.73 96.64-20.35 97.94-20.35L97.94-20.35Q99.64-20.35 100.29-19.18 100.94-18 100.94-16.1L100.94-16.1Q100.94-14.85 100.69-13.3 100.44-11.75 100.19-10.5L100.19-10.5 100.34-10.45Q101.34-13.1 102.77-15.38 104.19-17.65 106.09-19.05 107.99-20.45 110.49-20.45L110.49-20.45Q113.14-20.45 114.54-18.85 115.94-17.25 115.94-14.85L115.94-14.85Q115.94-13.85 115.72-12.95 115.49-12.05 115.24-11.2L115.24-11.2Q114.99-10.4 114.82-9.55 114.64-8.7 114.64-7.85L114.64-7.85Q114.64-5 117.34-4L117.34-4Q118.04-3.7 118.04-3.1L118.04-3.1Q118.04-2.65 117.74-1.8 117.44-0.95 116.64-0.23 115.84 0.5 114.29 0.5L114.29 0.5Q112.29 0.5 111.19-0.93 110.09-2.35 110.09-4.55L110.09-4.55Q110.09-5.8 110.37-7.08 110.64-8.35 110.94-9.45L110.94-9.45Q111.14-10.3 111.32-11.13 111.49-11.95 111.49-12.6L111.49-12.6Q111.49-14.9 109.09-14.9L109.09-14.9Q107.04-14.9 105.49-13.38 103.94-11.85 102.84-9.55 101.74-7.25 101.04-4.9L101.04-4.9 101.04-3.7Q101.04-1.85 100.02-0.65 98.99 0.55 97.24 0.55ZM133.39 0.65L133.39 0.65Q129.84 0.65 127.16-0.95 124.49-2.55 123.04-5.5 121.59-8.45 121.59-12.5L121.59-12.5Q121.59-16.35 122.84-19.9 124.09-23.45 126.44-26.25 128.79-29.05 132.09-30.7 135.39-32.35 139.54-32.35L139.54-32.35Q142.64-32.35 144.64-31.4 146.64-30.45 146.64-28.6L146.64-28.6Q146.64-27.7 146.16-26.83 145.69-25.95 144.94-25.35 144.19-24.75 143.39-24.75L143.39-24.75Q142.89-24.75 142.59-25L142.59-25Q141.24-25.9 139.94-26.33 138.64-26.75 136.94-26.75L136.94-26.75Q133.39-26.75 130.94-25.13 128.49-23.5 127.21-20.85 125.94-18.2 125.94-15.1L125.94-15.1Q125.94-12.1 127.09-9.8 128.24-7.5 130.29-6.2 132.34-4.9 135.09-4.9L135.09-4.9Q137.29-4.9 139.36-5.78 141.44-6.65 143.04-8.2L143.04-8.2Q143.74-8.85 144.44-8.85L144.44-8.85Q145.04-8.85 145.29-8.35 145.54-7.85 145.54-7.35L145.54-7.35Q145.54-6.5 145.04-5.43 144.54-4.35 143.49-3.3L143.49-3.3Q141.64-1.45 138.94-0.4 136.24 0.65 133.39 0.65ZM153.28 0.5L153.28 0.5Q151.84 0.5 151.13-0.3 150.44-1.1 150.44-3.1L150.44-3.1Q150.44-4.05 150.59-5.55 150.74-7.05 150.94-8.8L150.94-8.8Q151.24-10.95 151.46-13.3 151.69-15.65 151.69-17.8L151.69-17.8Q151.69-20.85 151.41-24.13 151.13-27.4 149.88-29.85L149.88-29.85Q149.44-30.85 149.44-31.3L149.44-31.3Q149.44-31.95 150.01-32.55 150.59-33.15 151.44-33.58 152.28-34 153.09-34L153.09-34Q154.38-34 155.03-32.83 155.69-31.65 155.88-29.63 156.09-27.6 156.09-25L156.09-25Q156.09-21.05 155.76-18.15 155.44-15.25 155.13-13.05L155.13-13.05Q154.94-11.6 154.76-10.3 154.59-9 154.59-7.95L154.59-7.95Q154.59-6.2 155.16-5.43 155.74-4.65 157.03-3.9L157.03-3.9Q157.38-3.7 157.56-3.53 157.74-3.35 157.74-3L157.74-3Q157.74-2.6 157.34-1.75 156.94-0.9 155.96-0.2 154.99 0.5 153.28 0.5ZM168.88 0.65L168.88 0.65Q165.43 0.65 163.36-1.23 161.28-3.1 161.28-6.75L161.28-6.75Q161.28-8.45 161.76-10.05 162.23-11.65 163.03-13.05L163.03-13.05Q162.23-12.55 161.83-12.55L161.83-12.55Q161.23-12.55 161.01-13.23 160.78-13.9 160.78-14.55L160.78-14.55Q160.78-15.7 161.26-16.38 161.73-17.05 162.18-17.4L162.18-17.4Q163.23-18.3 165.48-19.38 167.73-20.45 170.88-20.45L170.88-20.45Q175.18-20.45 177.56-18.05 179.93-15.65 179.93-11.35L179.93-11.35Q179.93-8 178.53-5.28 177.13-2.55 174.66-0.95 172.18 0.65 168.88 0.65ZM170.43-4.45L170.43-4.45Q172.93-4.45 174.66-6.03 176.38-7.6 176.38-10.2L176.38-10.2Q176.38-12.9 174.63-14.05 172.88-15.2 170.58-15.2L170.58-15.2Q169.53-15.2 168.68-15 167.83-14.8 167.08-14.5L167.08-14.5Q166.38-13.5 165.83-12.25 165.28-11 165.28-9.5L165.28-9.5Q165.28-7 166.78-5.73 168.28-4.45 170.43-4.45ZM190.03 0.65L190.03 0.65Q187.53 0.65 186.16-0.8 184.78-2.25 184.78-5L184.78-5Q184.78-6.95 185.33-9L185.33-9Q185.58-9.85 185.73-10.7 185.88-11.55 185.88-12.4L185.88-12.4Q185.88-14.6 184.53-15.25L184.53-15.25Q183.23-15.95 183.23-16.75L183.23-16.75Q183.23-17.55 183.91-18.35 184.58-19.15 185.58-19.68 186.58-20.2 187.58-20.2L187.58-20.2Q190.43-20.2 190.43-15.55L190.43-15.55Q190.43-14.05 190.21-12.78 189.98-11.5 189.68-10.35L189.68-10.35Q189.48-9.55 189.36-8.75 189.23-7.95 189.23-7.35L189.23-7.35Q189.23-4.85 191.68-4.85L191.68-4.85Q193.98-4.85 195.98-7.3 197.98-9.75 199.28-14.15L199.28-14.15 199.23-15.1Q199.13-17.6 200.11-18.9 201.08-20.2 202.98-20.2L202.98-20.2Q204.63-20.2 204.63-19.15L204.63-19.15Q204.63-18.8 204.51-18.25 204.38-17.7 204.13-16.95L204.13-16.95Q203.63-15.1 203.28-13.03 202.93-10.95 202.93-9.2L202.93-9.2Q202.93-7.25 203.53-5.98 204.13-4.7 205.78-4.25L205.78-4.25Q206.23-4.2 206.51-3.98 206.78-3.75 206.78-3.05L206.78-3.05Q206.78-1.85 205.78-0.7 204.78 0.45 202.88 0.45L202.88 0.45Q199.23 0.45 199.23-4.7L199.23-4.7Q199.23-5.6 199.38-7.4L199.38-7.4 199.28-7.45Q196.13 0.65 190.03 0.65ZM215.88 0.65L215.88 0.65Q212.88 0.65 211.15-1.35 209.43-3.35 209.43-6.8L209.43-6.8Q209.43-9.35 210.25-11.8 211.08-14.25 212.58-16.2 214.08-18.15 216.08-19.3 218.08-20.45 220.43-20.45L220.43-20.45Q221.93-20.45 223.1-20 224.28-19.55 225.18-18.85L225.18-18.85Q225.13-22.25 224.83-24.95 224.53-27.65 223.38-29.95L223.38-29.95Q223.18-30.35 223.05-30.68 222.93-31 222.93-31.3L222.93-31.3Q222.93-32 223.5-32.6 224.08-33.2 224.93-33.6 225.78-34 226.53-34L226.53-34Q227.88-34 228.55-32.83 229.23-31.65 229.43-29.63 229.63-27.6 229.63-25L229.63-25Q229.63-21.2 229.28-18.15 228.93-15.1 228.63-12.8L228.63-12.8Q228.43-11.3 228.28-10.2 228.13-9.1 228.13-8.4L228.13-8.4Q228.13-4.85 231.18-4.2L231.18-4.2Q231.98-4.05 231.98-3.15L231.98-3.15Q231.98-2.6 231.65-1.75 231.33-0.9 230.48-0.23 229.63 0.45 228.03 0.45L228.03 0.45Q225.88 0.45 225.13-1 224.38-2.45 224.38-5.4L224.38-5.4Q222.98-2.85 220.83-1.1 218.68 0.65 215.88 0.65ZM217.43-4.7L217.43-4.7Q218.83-4.7 220.23-5.6 221.63-6.5 222.73-8.05L222.73-8.05Q223.38-9 223.9-10.23 224.43-11.45 224.88-12.7L224.88-12.7Q222.33-15 219.23-15L219.23-15Q216.53-15 214.93-13.38 213.33-11.75 213.33-9.35L213.33-9.35Q213.33-7.3 214.53-6 215.73-4.7 217.43-4.7Z" opacity="1" transform="matrix(1,0,0,1,0,0)" fill="black" class="wordmark-text-0" id="SvgjsPath5755" stroke-width="5" stroke="black" stroke-linejoin="round"></path></svg></g></svg></g></svg></g></svg></g><g></g></svg></g></svg></g></svg></g></mask><g mask="url(#bf69cc9f-6aca-4ec0-8910-8a9a656112e2)"><g><path d="M185.89 247.2v0c-26.378 0-46.099-6.984-59.162-20.952-13.063-13.918-19.595-35.824-19.595-65.719v0c0-5.024 0.201-10.3 0.602-15.827 0.352-5.527 0.779-10.928 1.282-16.203v0c0.502-5.024 0.879-10.049 1.13-15.073 0.251-5.024 0.377-9.546 0.377-13.566v0c0-15.073-0.628-28.137-1.884-39.19-1.256-11.054-5.024-21.605-11.305-31.654v0c-2.01-3.266-3.015-5.904-3.015-7.914v0c0-3.266 1.834-6.481 5.502-9.646 3.618-3.115 7.939-5.803 12.963-8.065 5.024-2.261 9.798-3.391 14.32-3.391v0c6.029 0 10.375 2.01 13.038 6.029 2.613 4.02 4.296 8.969 5.049 14.847 0.754 5.929 1.13 11.908 1.131 17.937v0c0 6.28-0.301 13.189-0.905 20.726-0.653 7.537-1.608 15.701-2.863 24.494v0c-1.005 9.546-1.934 19.52-2.789 29.92-0.904 10.451-1.357 20.952-1.357 31.503v0c0 14.571 2.588 26.202 7.763 34.894 5.125 8.642 12.159 14.897 21.103 18.767 8.893 3.919 18.867 5.879 29.92 5.878v0c19.344 0 33.915-4.974 43.712-14.922 9.798-9.898 16.58-22.886 20.349-38.964v0c1.759-7.285 3.14-15.651 4.145-25.097 1.005-9.396 1.507-18.992 1.507-28.79v0c0-12.31-0.804-24.117-2.412-35.422-1.658-11.305-4.874-21.228-9.646-29.77v0c-1.005-2.01-1.884-3.768-2.638-5.275-0.754-1.507-1.13-3.14-1.131-4.899v0c0-3.517 1.507-6.984 4.522-10.4 3.015-3.366 6.783-6.13 11.305-8.291 4.522-2.11 9.17-3.165 13.943-3.165v0c8.039 0 13.44 3.391 16.204 10.174 2.763 6.783 4.145 14.696 4.145 23.741v0c0 5.527-0.427 13.566-1.282 24.117-0.904 10.551-2.11 21.856-3.617 33.914-1.507 12.059-3.015 23.414-4.522 34.066-1.507 10.702-2.889 18.942-4.145 24.72v0c-6.28 29.895-17.334 53.434-33.161 70.618-15.827 17.234-38.688 25.85-68.583 25.85z" fill="#000000" fill-rule="nonzero" stroke="none" stroke-width="1" stroke-linecap="butt" stroke-linejoin="miter" stroke-miterlimit="10" stroke-dasharray="" stroke-dashoffset="0" font-family="none" font-weight="none" font-size="none" text-anchor="none" style="mix-blend-mode: normal" data-fill-palette-color="tertiary"></path></g></g><g transform="matrix(1,0,0,1,0,90.3252959898154)"><svg viewBox="0 0 395.52 66.54940802036919" height="66.54940802036919" width="395.52"><g><svg viewBox="0 0 395.52 66.54940802036919" height="66.54940802036919" width="395.52"><g><svg viewBox="0 0 395.52 66.54940802036919" height="66.54940802036919" width="395.52"><g><svg viewBox="0 0 395.52 66.54940802036919" height="66.54940802036919" width="395.52"><g id="textblocktransform"><svg viewBox="0 0 395.52 66.54940802036919" height="66.54940802036919" width="395.52" id="textblock"><g><svg viewBox="0 0 395.52 66.54940802036919" height="66.54940802036919" width="395.52"><g transform="matrix(1,0,0,1,0,0)"><svg width="395.52" viewBox="-1.65 -37 236.63 40.65" height="66.54940802036919" data-palette-color="#21272d"><path d="M8.15 0.65L8.15 0.65Q5.65 0.65 4.28-0.8 2.9-2.25 2.9-5L2.9-5Q2.9-6.95 3.45-9L3.45-9Q3.7-9.85 3.85-10.7 4-11.55 4-12.4L4-12.4Q4-14.6 2.65-15.25L2.65-15.25Q1.35-15.95 1.35-16.75L1.35-16.75Q1.35-17.55 2.02-18.35 2.7-19.15 3.7-19.68 4.7-20.2 5.7-20.2L5.7-20.2Q8.55-20.2 8.55-15.55L8.55-15.55Q8.55-14.05 8.33-12.78 8.1-11.5 7.8-10.35L7.8-10.35Q7.6-9.55 7.48-8.75 7.35-7.95 7.35-7.35L7.35-7.35Q7.35-4.85 9.8-4.85L9.8-4.85Q12.1-4.85 14.1-7.3 16.1-9.75 17.4-14.15L17.4-14.15 17.35-15.1Q17.25-17.6 18.23-18.9 19.2-20.2 21.1-20.2L21.1-20.2Q22.75-20.2 22.75-19.15L22.75-19.15Q22.75-18.8 22.63-18.25 22.5-17.7 22.25-16.95L22.25-16.95Q21.75-15.1 21.4-13.03 21.05-10.95 21.05-9.2L21.05-9.2Q21.05-7.25 21.65-5.98 22.25-4.7 23.9-4.25L23.9-4.25Q24.35-4.2 24.63-3.98 24.9-3.75 24.9-3.05L24.9-3.05Q24.9-1.85 23.9-0.7 22.9 0.45 21 0.45L21 0.45Q17.35 0.45 17.35-4.7L17.35-4.7Q17.35-5.6 17.5-7.4L17.5-7.4 17.4-7.45Q14.25 0.65 8.15 0.65ZM30.75 0.55L30.75 0.55Q29.95 0.55 29.47 0.28 29 0 29.15-0.65L29.15-0.65Q29.7-2.8 30.07-5.03 30.45-7.25 30.45-9.3L30.45-9.3Q30.45-11.95 30.12-13.18 29.8-14.4 29.25-14.88 28.7-15.35 27.9-15.6L27.9-15.6Q27.55-15.75 27.27-16 27-16.25 27-16.7L27-16.7Q27-17.4 27.55-18.25 28.1-19.1 29.1-19.73 30.1-20.35 31.4-20.35L31.4-20.35Q33.1-20.35 33.77-19.18 34.45-18 34.45-16.1L34.45-16.1Q35.35-18.1 36.67-19.28 38-20.45 40-20.45L40-20.45Q41.35-20.45 42.25-19.85 43.15-19.25 43.15-17.9L43.15-17.9Q43.15-16.55 42.27-15.38 41.4-14.2 40.5-14.2L40.5-14.2Q40.35-14.2 40.15-14.25 39.95-14.3 39.8-14.5L39.8-14.5Q39.15-15.3 38.2-15.3L38.2-15.3Q36.75-15.3 35.65-13.4 34.55-11.5 34.45-8.15L34.45-8.15Q34.5-6.9 34.52-5.6 34.55-4.3 34.55-3.7L34.55-3.7Q34.55-1.85 33.52-0.65 32.5 0.55 30.75 0.55ZM54.34 0.65L54.34 0.65Q52.49 0.65 51.17 0 49.84-0.65 48.84-1.65L48.84-1.65Q48.34-0.8 47.67-0.13 46.99 0.55 46.14 0.55L46.14 0.55Q45.59 0.55 45.09 0.23 44.59-0.1 44.7-0.65L44.7-0.65Q45.45-4.65 45.97-8.75 46.49-12.85 46.49-17.1L46.49-17.1Q46.49-20.65 46.24-23.75 45.99-26.85 44.7-29.45L44.7-29.45Q44.45-29.95 44.27-30.4 44.09-30.85 44.09-31.25L44.09-31.25Q44.09-32.2 45.2-33.1 46.3-34 47.55-34L47.55-34Q49.34-34 49.99-31.8 50.64-29.6 50.64-25.3L50.64-25.3Q50.64-21.65 50.32-18.63 49.99-15.6 49.59-13.45L49.59-13.45Q50.99-16.4 53.42-18.43 55.84-20.45 58.89-20.45L58.89-20.45Q61.95-20.45 63.67-18.43 65.39-16.4 65.39-12.95L65.39-12.95Q65.39-10.4 64.59-7.98 63.8-5.55 62.34-3.6 60.89-1.65 58.87-0.5 56.84 0.65 54.34 0.65ZM55.49-4.75L55.49-4.75Q58.34-4.75 59.89-6.55 61.45-8.35 61.45-10.7L61.45-10.7Q61.45-12.75 60.32-13.88 59.2-15 57.34-15L57.34-15Q55.49-15 54.05-13.88 52.59-12.75 51.59-10.93 50.59-9.1 50.05-7L50.05-7Q51.2-5.9 52.62-5.33 54.05-4.75 55.49-4.75ZM75.44 0.65L75.44 0.65Q72.44 0.65 70.62-1.23 68.79-3.1 68.79-6.6L68.79-6.6Q68.79-9.1 69.77-11.58 70.74-14.05 72.59-16.05 74.44-18.05 77.04-19.25 79.64-20.45 82.89-20.45L82.89-20.45Q85.89-20.45 88.02-19.43 90.14-18.4 90.14-16.65L90.14-16.65Q90.14-16.2 90.04-15.48 89.94-14.75 89.79-14.3L89.79-14.3Q89.64-13.9 89.37-13.58 89.09-13.25 88.64-13.25L88.64-13.25Q88.44-13.25 87.89-13.4L87.89-13.4Q87.69-12.35 87.59-11.35 87.49-10.35 87.49-9.35L87.49-9.35Q87.49-7.45 88.07-5.98 88.64-4.5 90.34-4.15L90.34-4.15Q90.79-4.05 91.07-3.85 91.34-3.65 91.34-3L91.34-3Q91.34-2.45 91.07-1.6 90.79-0.75 90.02-0.08 89.24 0.6 87.79 0.6L87.79 0.6Q85.84 0.6 84.79-0.83 83.74-2.25 83.74-4.9L83.74-4.9Q82.39-2.45 80.32-0.9 78.24 0.65 75.44 0.65ZM77.04-4.55L77.04-4.55Q79.04-4.55 80.57-5.8 82.09-7.05 82.94-8.95L82.94-8.95Q83.49-10.15 83.79-11.58 84.09-13 84.19-14.4L84.19-14.4Q83.34-14.8 82.24-15.05 81.14-15.3 79.94-15.3L79.94-15.3Q76.89-15.3 74.92-13.5 72.94-11.7 72.94-9L72.94-9Q72.94-7 74.04-5.78 75.14-4.55 77.04-4.55ZM97.24 0.55L97.24 0.55Q95.44 0.55 95.64-0.65L95.64-0.65Q96.19-2.8 96.57-5.03 96.94-7.25 96.94-9.3L96.94-9.3Q96.94-11.95 96.62-13.18 96.29-14.4 95.74-14.88 95.19-15.35 94.39-15.6L94.39-15.6Q94.04-15.75 93.77-16 93.49-16.25 93.49-16.7L93.49-16.7Q93.49-17.4 94.04-18.25 94.59-19.1 95.62-19.73 96.64-20.35 97.94-20.35L97.94-20.35Q99.64-20.35 100.29-19.18 100.94-18 100.94-16.1L100.94-16.1Q100.94-14.85 100.69-13.3 100.44-11.75 100.19-10.5L100.19-10.5 100.34-10.45Q101.34-13.1 102.77-15.38 104.19-17.65 106.09-19.05 107.99-20.45 110.49-20.45L110.49-20.45Q113.14-20.45 114.54-18.85 115.94-17.25 115.94-14.85L115.94-14.85Q115.94-13.85 115.72-12.95 115.49-12.05 115.24-11.2L115.24-11.2Q114.99-10.4 114.82-9.55 114.64-8.7 114.64-7.85L114.64-7.85Q114.64-5 117.34-4L117.34-4Q118.04-3.7 118.04-3.1L118.04-3.1Q118.04-2.65 117.74-1.8 117.44-0.95 116.64-0.23 115.84 0.5 114.29 0.5L114.29 0.5Q112.29 0.5 111.19-0.93 110.09-2.35 110.09-4.55L110.09-4.55Q110.09-5.8 110.37-7.08 110.64-8.35 110.94-9.45L110.94-9.45Q111.14-10.3 111.32-11.13 111.49-11.95 111.49-12.6L111.49-12.6Q111.49-14.9 109.09-14.9L109.09-14.9Q107.04-14.9 105.49-13.38 103.94-11.85 102.84-9.55 101.74-7.25 101.04-4.9L101.04-4.9 101.04-3.7Q101.04-1.85 100.02-0.65 98.99 0.55 97.24 0.55ZM133.39 0.65L133.39 0.65Q129.84 0.65 127.16-0.95 124.49-2.55 123.04-5.5 121.59-8.45 121.59-12.5L121.59-12.5Q121.59-16.35 122.84-19.9 124.09-23.45 126.44-26.25 128.79-29.05 132.09-30.7 135.39-32.35 139.54-32.35L139.54-32.35Q142.64-32.35 144.64-31.4 146.64-30.45 146.64-28.6L146.64-28.6Q146.64-27.7 146.16-26.83 145.69-25.95 144.94-25.35 144.19-24.75 143.39-24.75L143.39-24.75Q142.89-24.75 142.59-25L142.59-25Q141.24-25.9 139.94-26.33 138.64-26.75 136.94-26.75L136.94-26.75Q133.39-26.75 130.94-25.13 128.49-23.5 127.21-20.85 125.94-18.2 125.94-15.1L125.94-15.1Q125.94-12.1 127.09-9.8 128.24-7.5 130.29-6.2 132.34-4.9 135.09-4.9L135.09-4.9Q137.29-4.9 139.36-5.78 141.44-6.65 143.04-8.2L143.04-8.2Q143.74-8.85 144.44-8.85L144.44-8.85Q145.04-8.85 145.29-8.35 145.54-7.85 145.54-7.35L145.54-7.35Q145.54-6.5 145.04-5.43 144.54-4.35 143.49-3.3L143.49-3.3Q141.64-1.45 138.94-0.4 136.24 0.65 133.39 0.65ZM153.28 0.5L153.28 0.5Q151.84 0.5 151.13-0.3 150.44-1.1 150.44-3.1L150.44-3.1Q150.44-4.05 150.59-5.55 150.74-7.05 150.94-8.8L150.94-8.8Q151.24-10.95 151.46-13.3 151.69-15.65 151.69-17.8L151.69-17.8Q151.69-20.85 151.41-24.13 151.13-27.4 149.88-29.85L149.88-29.85Q149.44-30.85 149.44-31.3L149.44-31.3Q149.44-31.95 150.01-32.55 150.59-33.15 151.44-33.58 152.28-34 153.09-34L153.09-34Q154.38-34 155.03-32.83 155.69-31.65 155.88-29.63 156.09-27.6 156.09-25L156.09-25Q156.09-21.05 155.76-18.15 155.44-15.25 155.13-13.05L155.13-13.05Q154.94-11.6 154.76-10.3 154.59-9 154.59-7.95L154.59-7.95Q154.59-6.2 155.16-5.43 155.74-4.65 157.03-3.9L157.03-3.9Q157.38-3.7 157.56-3.53 157.74-3.35 157.74-3L157.74-3Q157.74-2.6 157.34-1.75 156.94-0.9 155.96-0.2 154.99 0.5 153.28 0.5ZM168.88 0.65L168.88 0.65Q165.43 0.65 163.36-1.23 161.28-3.1 161.28-6.75L161.28-6.75Q161.28-8.45 161.76-10.05 162.23-11.65 163.03-13.05L163.03-13.05Q162.23-12.55 161.83-12.55L161.83-12.55Q161.23-12.55 161.01-13.23 160.78-13.9 160.78-14.55L160.78-14.55Q160.78-15.7 161.26-16.38 161.73-17.05 162.18-17.4L162.18-17.4Q163.23-18.3 165.48-19.38 167.73-20.45 170.88-20.45L170.88-20.45Q175.18-20.45 177.56-18.05 179.93-15.65 179.93-11.35L179.93-11.35Q179.93-8 178.53-5.28 177.13-2.55 174.66-0.95 172.18 0.65 168.88 0.65ZM170.43-4.45L170.43-4.45Q172.93-4.45 174.66-6.03 176.38-7.6 176.38-10.2L176.38-10.2Q176.38-12.9 174.63-14.05 172.88-15.2 170.58-15.2L170.58-15.2Q169.53-15.2 168.68-15 167.83-14.8 167.08-14.5L167.08-14.5Q166.38-13.5 165.83-12.25 165.28-11 165.28-9.5L165.28-9.5Q165.28-7 166.78-5.73 168.28-4.45 170.43-4.45ZM190.03 0.65L190.03 0.65Q187.53 0.65 186.16-0.8 184.78-2.25 184.78-5L184.78-5Q184.78-6.95 185.33-9L185.33-9Q185.58-9.85 185.73-10.7 185.88-11.55 185.88-12.4L185.88-12.4Q185.88-14.6 184.53-15.25L184.53-15.25Q183.23-15.95 183.23-16.75L183.23-16.75Q183.23-17.55 183.91-18.35 184.58-19.15 185.58-19.68 186.58-20.2 187.58-20.2L187.58-20.2Q190.43-20.2 190.43-15.55L190.43-15.55Q190.43-14.05 190.21-12.78 189.98-11.5 189.68-10.35L189.68-10.35Q189.48-9.55 189.36-8.75 189.23-7.95 189.23-7.35L189.23-7.35Q189.23-4.85 191.68-4.85L191.68-4.85Q193.98-4.85 195.98-7.3 197.98-9.75 199.28-14.15L199.28-14.15 199.23-15.1Q199.13-17.6 200.11-18.9 201.08-20.2 202.98-20.2L202.98-20.2Q204.63-20.2 204.63-19.15L204.63-19.15Q204.63-18.8 204.51-18.25 204.38-17.7 204.13-16.95L204.13-16.95Q203.63-15.1 203.28-13.03 202.93-10.95 202.93-9.2L202.93-9.2Q202.93-7.25 203.53-5.98 204.13-4.7 205.78-4.25L205.78-4.25Q206.23-4.2 206.51-3.98 206.78-3.75 206.78-3.05L206.78-3.05Q206.78-1.85 205.78-0.7 204.78 0.45 202.88 0.45L202.88 0.45Q199.23 0.45 199.23-4.7L199.23-4.7Q199.23-5.6 199.38-7.4L199.38-7.4 199.28-7.45Q196.13 0.65 190.03 0.65ZM215.88 0.65L215.88 0.65Q212.88 0.65 211.15-1.35 209.43-3.35 209.43-6.8L209.43-6.8Q209.43-9.35 210.25-11.8 211.08-14.25 212.58-16.2 214.08-18.15 216.08-19.3 218.08-20.45 220.43-20.45L220.43-20.45Q221.93-20.45 223.1-20 224.28-19.55 225.18-18.85L225.18-18.85Q225.13-22.25 224.83-24.95 224.53-27.65 223.38-29.95L223.38-29.95Q223.18-30.35 223.05-30.68 222.93-31 222.93-31.3L222.93-31.3Q222.93-32 223.5-32.6 224.08-33.2 224.93-33.6 225.78-34 226.53-34L226.53-34Q227.88-34 228.55-32.83 229.23-31.65 229.43-29.63 229.63-27.6 229.63-25L229.63-25Q229.63-21.2 229.28-18.15 228.93-15.1 228.63-12.8L228.63-12.8Q228.43-11.3 228.28-10.2 228.13-9.1 228.13-8.4L228.13-8.4Q228.13-4.85 231.18-4.2L231.18-4.2Q231.98-4.05 231.98-3.15L231.98-3.15Q231.98-2.6 231.65-1.75 231.33-0.9 230.48-0.23 229.63 0.45 228.03 0.45L228.03 0.45Q225.88 0.45 225.13-1 224.38-2.45 224.38-5.4L224.38-5.4Q222.98-2.85 220.83-1.1 218.68 0.65 215.88 0.65ZM217.43-4.7L217.43-4.7Q218.83-4.7 220.23-5.6 221.63-6.5 222.73-8.05L222.73-8.05Q223.38-9 223.9-10.23 224.43-11.45 224.88-12.7L224.88-12.7Q222.33-15 219.23-15L219.23-15Q216.53-15 214.93-13.38 213.33-11.75 213.33-9.35L213.33-9.35Q213.33-7.3 214.53-6 215.73-4.7 217.43-4.7Z" opacity="1" transform="matrix(1,0,0,1,0,0)" fill="#000000" class="wordmark-text-0" data-fill-palette-color="primary" id="text-0"></path></svg></g></svg></g></svg></g></svg></g><g></g></svg></g></svg></g></svg></g></svg></g><defs></defs></svg><rect width="395.52" height="247.2" fill="none" stroke="none" visibility="hidden"></rect></g></svg></g></svg>